<svg width="20" height="20" viewBox="0 0 20 20" fill="none" xmlns="http://www.w3.org/2000/svg">
<path d="M10.3812 2.63879C10.1566 2.46545 9.84344 2.46545 9.61883 2.63879L1.49444 8.88818C1.2207 9.09814 1.16913 9.4906 1.37909 9.76465C1.58996 10.0381 1.98242 10.0894 2.25555 9.87939L10 3.92236L17.7444 9.87939C17.858 9.96667 17.9916 10.0088 18.1247 10.0088C18.3121 10.0088 18.4976 9.92456 18.6209 9.76465C18.8309 9.4906 18.7793 9.09814 18.5056 8.88818L10.3812 2.63879Z" fill="#F6B500"/>
<path d="M11.875 17.4904H16.1875C16.5313 17.4904 16.8125 17.2092 16.8125 16.8654V10.7404L10 5.50293L3.1875 10.7404V16.8654C3.1875 17.2092 3.46876 17.4904 3.8125 17.4904H8.12502C8.46876 17.4904 8.75002 17.2092 8.75002 16.8654V13.1154H11.25V16.8654C11.25 17.2092 11.5313 17.4904 11.875 17.4904Z" fill="#F6B500"/>
</svg>
