<svg width="80" height="80" viewBox="0 0 80 80" fill="none" xmlns="http://www.w3.org/2000/svg">
<path d="M72.7064 17.6305L59.4921 12.3448C59.1766 12.2184 58.8245 12.2184 58.509 12.3448L45.2947 17.6305C45.0497 17.7287 44.8398 17.898 44.6919 18.1165C44.544 18.3351 44.4649 18.5929 44.4649 18.8568V32.5151C44.4717 35.0247 45.1248 37.4903 46.3612 39.6742C47.5975 41.8582 49.3756 43.6869 51.5239 44.9841L58.3214 49.0621C58.5266 49.185 58.7613 49.25 59.0006 49.25C59.2398 49.25 59.4746 49.185 59.6798 49.0621L65.6077 45.5048V60.3048C65.607 60.8793 65.3785 61.4301 64.9722 61.8364C64.5659 62.2427 64.0151 62.4712 63.4406 62.4719H12.2748C11.7003 62.4712 11.1495 62.2427 10.7432 61.8364C10.3369 61.4301 10.1084 60.8793 10.1077 60.3048V30.7497H40.5006C40.851 30.7497 41.1871 30.6105 41.435 30.3627C41.6828 30.1148 41.822 29.7787 41.822 29.4283C41.822 29.0778 41.6828 28.7417 41.435 28.4939C41.1871 28.2461 40.851 28.1068 40.5006 28.1068H10.1077V24.9883C10.1084 24.4137 10.3369 23.8629 10.7432 23.4566C11.1495 23.0504 11.7003 22.8218 12.2748 22.8211H40.5006C40.851 22.8211 41.1871 22.6819 41.435 22.4341C41.6828 22.1863 41.822 21.8502 41.822 21.4997C41.822 21.1492 41.6828 20.8131 41.435 20.5653C41.1871 20.3175 40.851 20.1783 40.5006 20.1783H12.2748C10.9994 20.179 9.77633 20.686 8.87443 21.5879C7.97254 22.4898 7.46554 23.7128 7.46484 24.9883V60.2968C7.46554 61.5723 7.97254 62.7954 8.87443 63.6973C9.77633 64.5992 10.9994 65.1061 12.2748 65.1068H63.4406C64.716 65.1061 65.9391 64.5992 66.841 63.6973C67.7429 62.7954 68.2499 61.5723 68.2506 60.2968V43.6997C69.8967 42.3349 71.2232 40.6254 72.1365 38.692C73.0498 36.7585 73.5276 34.6481 73.5363 32.5098V18.8568C73.5362 18.5929 73.4571 18.3351 73.3092 18.1165C73.1613 17.898 72.9514 17.7287 72.7064 17.6305ZM70.8934 32.5151C70.888 34.5686 70.3536 36.5861 69.3416 38.3729C68.3297 40.1598 66.8744 41.6558 65.1161 42.7166L59.0006 46.3875L52.885 42.7166C51.1267 41.6558 49.6714 40.1598 48.6595 38.3729C47.6476 36.5861 47.1131 34.5686 47.1077 32.5151V19.7501L59.0006 14.993L70.8934 19.7501V32.5151Z" fill="#5758D6"/>
<path d="M54.6515 28.7201C54.5288 28.5973 54.3832 28.4998 54.2228 28.4332C54.0624 28.3667 53.8905 28.3323 53.7169 28.3322C53.5433 28.3321 53.3713 28.3662 53.2109 28.4325C53.0504 28.4988 52.9046 28.5961 52.7817 28.7188C52.6589 28.8415 52.5614 28.9872 52.4948 29.1475C52.4282 29.3079 52.3939 29.4798 52.3938 29.6534C52.3937 29.8271 52.4278 29.999 52.4941 30.1595C52.5604 30.3199 52.6577 30.4658 52.7804 30.5886L56.306 34.1116C56.5538 34.3593 56.8898 34.4985 57.2402 34.4985C57.5906 34.4985 57.9267 34.3593 58.1745 34.1116L65.223 27.0631C65.4707 26.8149 65.6098 26.4785 65.6096 26.1279C65.6093 25.7772 65.4698 25.441 65.2216 25.1932C64.9735 24.9455 64.6371 24.8064 64.2865 24.8066C63.9358 24.8069 63.5996 24.9464 63.3518 25.1946L57.2389 31.3101L54.6515 28.7201ZM16.716 54.5356C16.3655 54.5356 16.0294 54.6748 15.7816 54.9226C15.5338 55.1704 15.3945 55.5065 15.3945 55.857C15.3945 56.2075 15.5338 56.5436 15.7816 56.7914C16.0294 57.0392 16.3655 57.1784 16.716 57.1784H27.2874C27.6379 57.1784 27.974 57.0392 28.2218 56.7914C28.4696 56.5436 28.6088 56.2075 28.6088 55.857C28.6088 55.5065 28.4696 55.1704 28.2218 54.9226C27.974 54.6748 27.6379 54.5356 27.2874 54.5356H16.716Z" fill="#5758D6"/>
</svg>
