<svg width="80" height="80" viewBox="0 0 80 80" fill="none" xmlns="http://www.w3.org/2000/svg">
<g clip-path="url(#clip0_26827_3099)">
<path d="M71.0676 50.2038L69.0139 49.1775C68.85 48.447 68.4425 47.794 67.8584 47.3256C67.2743 46.8573 66.5484 46.6015 65.7997 46.6002H62.4997C62.4973 45.7508 62.2972 44.9137 61.9154 44.155C61.5335 43.3963 60.9804 42.7368 60.2997 42.2288V31.4554C60.762 31.6791 61.289 31.7303 61.7856 31.5996C62.2822 31.4688 62.7157 31.1649 63.0079 30.7426L64.2938 28.9309C64.632 28.4525 64.7665 27.8594 64.6677 27.2819C64.5689 26.7044 64.2449 26.1897 63.7669 25.8509L38.0192 7.61068C37.4578 7.21398 36.7872 7.00098 36.0997 7.00098C35.4123 7.00098 34.7417 7.21398 34.1802 7.61068L27.2997 12.4848C27.2957 11.904 27.0621 11.3483 26.6499 10.9391C26.2378 10.5298 25.6805 10.3002 25.0997 10.3002H19.5997C19.0163 10.3002 18.4567 10.532 18.0441 10.9445C17.6315 11.3571 17.3997 11.9167 17.3997 12.5002V19.4962L8.43253 25.8487C8.19571 26.0163 7.99424 26.229 7.83964 26.4746C7.68503 26.7201 7.58033 26.9937 7.5315 27.2797C7.48267 27.5658 7.49068 27.8586 7.55506 28.1415C7.61944 28.4245 7.73894 28.692 7.90673 28.9287L9.19043 30.7404C9.48647 31.1584 9.91834 31.4608 10.4124 31.596C10.9064 31.7312 11.4321 31.6908 11.8997 31.4818V59.8002C11.8997 60.9671 12.3633 62.0863 13.1885 62.9115C14.0136 63.7366 15.1328 64.2002 16.2997 64.2002H22.8997V65.4608C22.8969 66.2786 23.1232 67.0808 23.5531 67.7764C23.983 68.4721 24.5992 69.0334 25.3318 69.3966L27.3855 70.4229C27.5495 71.1534 27.957 71.8064 28.541 72.2747C29.1251 72.7431 29.8511 72.9989 30.5997 73.0002H43.1485C43.8962 72.9985 44.6203 72.7388 45.1987 72.265C45.777 71.7913 46.1742 71.1325 46.3231 70.3998L46.6531 68.7729C46.734 68.3632 46.9738 68.0021 47.3201 67.7686C47.6663 67.5351 48.0909 67.4481 48.5011 67.5266C48.8274 67.6059 49.1231 67.7797 49.351 68.0262C49.579 68.2728 49.7291 68.5811 49.7826 68.9126L50.0796 70.4009C50.2287 71.1328 50.6254 71.7909 51.2031 72.2644C51.7808 72.7379 52.504 72.9978 53.2509 73.0002H65.7997C66.5484 72.9989 67.2743 72.7431 67.8584 72.2747C68.4425 71.8064 68.85 71.1534 69.0139 70.4229L71.0676 69.3966C71.8003 69.0334 72.4165 68.4721 72.8464 67.7764C73.2763 67.0808 73.5026 66.2786 73.4997 65.4608V54.1396C73.5023 53.3219 73.2759 52.5198 72.8461 51.8242C72.4162 51.1286 71.8001 50.5672 71.0676 50.2038ZM54.5302 46.6002L53.5897 43.3002H56.9997C57.8749 43.3002 58.7143 43.6479 59.3332 44.2667C59.952 44.8856 60.2997 45.725 60.2997 46.6002H54.5302ZM36.0997 46.6002C36.0997 45.725 36.4474 44.8856 37.0663 44.2667C37.6851 43.6479 38.5245 43.3002 39.3997 43.3002H42.8097L41.8659 46.6002H36.0997ZM45.5025 41.8977C45.5682 41.668 45.7069 41.4659 45.8976 41.3221C46.0884 41.1782 46.3207 41.1003 46.5596 41.1002H49.8398C50.0787 41.1003 50.3111 41.1782 50.5018 41.3221C50.6925 41.4659 50.8312 41.668 50.8969 41.8977L52.2411 46.6002H44.1583L45.5025 41.8977ZM19.5997 12.5002H25.0997V14.0402L19.5997 17.9386V12.5002ZM10.9856 29.471L9.69973 27.645L35.4518 9.40698C35.6412 9.27281 35.8676 9.20076 36.0997 9.20076C36.3318 9.20076 36.5582 9.27281 36.7476 9.40698L62.4997 27.6582L61.2127 29.471H61.1984L36.7355 12.1449C36.5497 12.0132 36.3275 11.9425 36.0997 11.9425C35.872 11.9425 35.6498 12.0132 35.4639 12.1449L10.9856 29.471ZM22.8997 54.1396V62.0002H16.2997C15.7163 62.0002 15.1567 61.7684 14.7441 61.3558C14.3315 60.9432 14.0997 60.3837 14.0997 59.8002V29.9748L36.0997 14.3911L58.0997 29.9748V41.2102C57.7377 41.1367 57.3692 41.0998 56.9997 41.1002H52.9407C52.7127 40.4592 52.2927 39.904 51.7378 39.5103C51.1829 39.1167 50.5202 38.9036 49.8398 38.9002H46.5596C45.8793 38.9036 45.2165 39.1167 44.6616 39.5103C44.1068 39.904 43.6867 40.4592 43.4587 41.1002H39.3997C37.9416 41.1019 36.5436 41.682 35.5126 42.713C34.4815 43.7441 33.9015 45.142 33.8997 46.6002H30.5997C29.8511 46.6015 29.1251 46.8573 28.541 47.3256C27.957 47.794 27.5495 48.447 27.3855 49.1775L25.3318 50.2038C24.5993 50.5672 23.9833 51.1286 23.5534 51.8242C23.1236 52.5198 22.8971 53.3219 22.8997 54.1396ZM25.0997 65.4608V54.1396C25.0985 53.7308 25.2117 53.3299 25.4265 52.9821C25.6413 52.6343 25.9492 52.3536 26.3152 52.1717L27.2997 51.68V67.9204L26.3152 67.4287C25.9492 67.2468 25.6413 66.9661 25.4265 66.6183C25.2117 66.2705 25.0985 65.8696 25.0997 65.4608ZM65.7997 70.8002H53.2509C53.0114 70.7997 52.7794 70.7166 52.594 70.5649C52.4086 70.4132 52.2813 70.2022 52.2334 69.9675L51.9397 68.4803C51.7984 67.718 51.4339 67.0149 50.8924 66.4601C50.3509 65.9053 49.6568 65.5238 48.8982 65.364C48.6642 65.3209 48.4267 65.2996 48.1887 65.3002C47.3152 65.2985 46.4683 65.6012 45.7938 66.1563C45.1193 66.7114 44.6592 67.4841 44.4927 68.3417L44.1627 69.9675C44.1151 70.2024 43.9878 70.4137 43.8024 70.5656C43.6171 70.7175 43.3849 70.8008 43.1452 70.8013H30.5997C30.308 70.8013 30.0282 70.6854 29.8219 70.4791C29.6156 70.2728 29.4997 69.993 29.4997 69.7013V49.9002C29.4997 49.6085 29.6156 49.3287 29.8219 49.1224C30.0282 48.9161 30.308 48.8002 30.5997 48.8002H65.7997C66.0915 48.8002 66.3713 48.9161 66.5775 49.1224C66.7838 49.3287 66.8997 49.6085 66.8997 49.9002V69.7002C66.8997 69.9919 66.7838 70.2717 66.5775 70.478C66.3713 70.6843 66.0915 70.8002 65.7997 70.8002ZM71.2997 65.4608C71.3015 65.869 71.1891 66.2695 70.9753 66.6173C70.7615 66.965 70.4548 67.246 70.0897 67.4287L69.0997 67.9204V51.68L70.0897 52.1717C70.4548 52.3544 70.7615 52.6354 70.9753 52.9831C71.1891 53.3308 71.3015 53.7314 71.2997 54.1396V65.4608Z" fill="#5758D6"/>
<path d="M32.801 55.4002C33.0927 55.4001 33.3725 55.2842 33.5787 55.0779L35.7787 52.8779C35.9791 52.6704 36.09 52.3925 36.0875 52.1041C36.085 51.8157 35.9693 51.5398 35.7653 51.3359C35.5614 51.1319 35.2855 51.0162 34.9971 51.0137C34.7086 51.0112 34.4308 51.1221 34.2233 51.3225L32.0233 53.5225C31.8695 53.6763 31.7648 53.8723 31.7224 54.0856C31.68 54.299 31.7017 54.5201 31.785 54.7211C31.8682 54.922 32.0092 55.0938 32.19 55.2147C32.3709 55.3356 32.5835 55.4001 32.801 55.4002ZM40.8233 51.3225L32.0233 60.1225C31.9183 60.2239 31.8345 60.3453 31.7768 60.4795C31.7192 60.6137 31.6888 60.7581 31.6875 60.9041C31.6863 61.0502 31.7141 61.195 31.7694 61.3302C31.8247 61.4654 31.9064 61.5882 32.0097 61.6915C32.113 61.7948 32.2358 61.8764 32.371 61.9318C32.5062 61.9871 32.651 62.0149 32.7971 62.0136C32.9431 62.0124 33.0875 61.982 33.2217 61.9244C33.3559 61.8667 33.4772 61.7829 33.5787 61.6779L42.3787 52.8779C42.5791 52.6704 42.69 52.3925 42.6875 52.1041C42.685 51.8157 42.5693 51.5398 42.3653 51.3359C42.1614 51.1319 41.8855 51.0162 41.5971 51.0137C41.3086 51.0112 41.0308 51.1221 40.8233 51.3225Z" fill="#5758D6"/>
</g>
<defs>
<clipPath id="clip0_26827_3099">
<rect width="66" height="66" fill="white" transform="translate(7.5 7)"/>
</clipPath>
</defs>
</svg>
