<svg width="80" height="80" viewBox="0 0 80 80" fill="none" xmlns="http://www.w3.org/2000/svg">
<path d="M73.4491 54.0826C72.4506 52.0731 70.0305 51.2406 67.8213 52.149L65.245 53.2065V37.2877L65.8173 37.7898C66.3405 38.2482 66.9902 38.4746 67.637 38.4746C68.4048 38.4746 69.1698 38.1568 69.7155 37.5352L69.8955 37.3299C70.3806 36.7759 70.6225 36.0657 70.5733 35.3274C70.5255 34.5905 70.1936 33.917 69.6395 33.4304L62.5605 27.2218V15.924C62.5605 15.4585 62.1822 15.0802 61.7167 15.0802H55.1059C54.6405 15.0802 54.2622 15.4585 54.2622 15.924V19.943L46.7669 13.3702C46.6129 13.2356 46.4153 13.1614 46.2107 13.1614C46.0062 13.1614 45.8085 13.2356 45.6545 13.3702L44.4255 14.4488C44.3464 14.2126 44.2135 13.9979 44.0373 13.8216L41.1658 10.9501C40.6286 10.4129 39.8073 10.3257 39.1689 10.7377L36.9189 12.1918C36.5325 12.0075 36.1368 11.8432 35.7334 11.6996L35.1709 9.08117C35.0106 8.33867 34.3694 7.81836 33.6086 7.81836H29.5473C28.7866 7.81836 28.1453 8.33727 27.985 9.08117L27.4225 11.6996C27.0191 11.8431 26.6234 12.0074 26.237 12.1918L23.987 10.7377C23.3486 10.3257 22.5273 10.4129 21.9902 10.9501L19.1186 13.8216C18.5814 14.3588 18.4942 15.1801 18.9062 15.8185L20.3603 18.0685C20.1756 18.4548 20.0113 18.8505 19.8681 19.254L17.2497 19.8165C16.5058 19.9754 15.9869 20.618 15.9869 21.3788V25.4401C15.9869 26.2009 16.5058 26.8421 17.2497 27.0024L19.8681 27.5649C20.0116 27.9671 20.1761 28.3651 20.3603 28.7504L18.9062 31.0004C18.4942 31.6388 18.5814 32.4601 19.1186 32.9973L21.8538 35.7324C21.9002 36.3034 22.1195 36.8659 22.5259 37.3285L22.7059 37.5338C23.1911 38.0879 23.8647 38.4198 24.603 38.4676C25.3412 38.5168 26.0514 38.2749 26.6055 37.7898L27.1778 37.2877V45.5424C24.6677 46.0374 22.3867 46.8812 20.2197 48.106V43.4162C20.2197 42.9507 19.8414 42.5724 19.3759 42.5724H15.4848V40.0693C15.4848 39.6038 15.1066 39.2255 14.6411 39.2255H6.95312C6.48766 39.2255 6.10938 39.6038 6.10938 40.0693V71.3387C6.10938 71.8041 6.48766 72.1824 6.95312 72.1824H14.6411C15.1066 72.1824 15.4848 71.8041 15.4848 71.3387V68.8355H19.3773C19.8428 68.8355 20.2211 68.4573 20.2211 67.9918V63.721L40.6905 69.5935C41.1475 69.7243 41.5877 69.789 42.0334 69.789C42.3597 69.789 42.6888 69.7538 43.0291 69.6849L56.4798 66.947C56.5431 66.9343 56.6036 66.9146 56.6627 66.8879L63.4183 63.804C63.4267 63.7998 63.4352 63.7955 63.4436 63.7927L71.5408 59.768C72.5519 59.266 73.307 58.397 73.6684 57.3212C74.0298 56.2426 73.9525 55.0937 73.4491 54.0826ZM13.7973 70.4921H7.79688V40.9116H13.7973V70.4921ZM55.9511 16.7677H60.8744V25.741L55.9511 21.4238V16.7677ZM21.9044 28.0613C21.7313 27.7026 21.5783 27.3345 21.4459 26.9588C21.2603 26.4287 20.8216 26.0434 20.2731 25.9252L17.6772 25.367V21.452L20.2731 20.8937C20.8216 20.7755 21.2603 20.3902 21.4459 19.8601C21.5767 19.486 21.7314 19.1162 21.9044 18.7562C22.1477 18.2499 22.1125 17.6663 21.8073 17.1952L20.3659 14.9635L23.1348 12.1946L25.3652 13.636C25.8362 13.9412 26.4198 13.9777 26.9261 13.733C27.2847 13.5601 27.6559 13.4054 28.03 13.2746C28.5588 13.089 28.9455 12.6502 29.0636 12.1018L29.6219 9.50586H33.5383L34.0966 12.1018C34.2147 12.6502 34.6 13.089 35.1302 13.2746C35.5042 13.4054 35.8755 13.5601 36.2327 13.733C36.7389 13.9777 37.3225 13.9412 37.7936 13.636L40.0253 12.1946L42.7942 14.9635L41.4273 17.0785L38.1536 19.9501C36.8866 17.5355 34.3778 15.983 31.5794 15.983C27.4844 15.983 24.153 19.3145 24.153 23.4095C24.153 25.8282 25.3553 28.0951 27.2945 29.4732L22.7833 33.429C22.63 33.564 22.4964 33.7116 22.3811 33.8705L20.3659 31.8554L21.8088 29.6237C22.1111 29.1512 22.1477 28.5676 21.9044 28.0613ZM28.6108 28.3187C26.9134 27.2865 25.8405 25.4176 25.8405 23.4095C25.8405 20.2454 28.4153 17.6705 31.5794 17.6705C32.6948 17.6688 33.7865 17.9928 34.7203 18.6029C35.6541 19.2129 36.3894 20.0824 36.8359 21.1046L28.6108 28.3187ZM25.4945 36.5199C25.2794 36.7084 25.0023 36.8012 24.7155 36.7829C24.4286 36.7646 24.1656 36.6352 23.9772 36.4201L23.7972 36.2148C23.4062 35.769 23.4513 35.0884 23.897 34.6974L46.2114 15.1266L68.5272 34.6974C68.7423 34.8859 68.8703 35.1474 68.89 35.4357C68.9083 35.7226 68.8155 35.9996 68.627 36.2148L68.447 36.4201C68.0561 36.8659 67.3755 36.9109 66.9297 36.5199L46.7683 18.8377C46.6141 18.7028 46.4163 18.6284 46.2114 18.6284C46.0066 18.6284 45.8087 18.7028 45.6545 18.8377L25.4945 36.5199ZM28.8667 35.807L46.2128 20.5941L63.5589 35.807V53.8998L62.8727 54.1824L55.7331 56.7629L53.1091 56.822V39.511C53.1091 36.0657 50.0167 33.2616 46.2142 33.2616C42.4117 33.2616 39.3194 36.0657 39.3194 39.511V48.961L36.6208 46.8868C34.8587 45.5326 33.1628 44.9476 31.2855 45.046C30.4544 45.0896 29.6514 45.1641 28.8695 45.2668V35.807H28.8667ZM51.4188 54.7168C50.9561 53.6987 50.0561 52.8718 48.8777 52.5118L41.0041 50.1071V39.5096C41.0041 36.9938 43.3398 34.9477 46.2114 34.9477C49.083 34.9477 51.4188 36.9938 51.4188 39.5096V54.7168ZM18.5336 67.1452H15.4848V44.2585H18.5336V67.1452ZM72.0681 56.7812C71.8502 57.4295 71.3959 57.9526 70.7884 58.2549L62.7025 62.274L56.0495 65.3129L42.693 68.0312C42.1558 68.1409 41.6819 68.1212 41.1559 67.9707L20.2211 61.9646V50.0663C23.5117 48.0188 27.0611 46.9571 31.3713 46.7307C32.8253 46.6548 34.1655 47.1287 35.59 48.2241L39.775 51.4416C39.8552 51.5035 39.9466 51.5499 40.0422 51.5795L48.3841 54.1262C49.5906 54.4946 50.3036 55.6801 50.0097 56.8262C49.7059 58.006 48.4994 58.719 47.3209 58.4152L35.1344 55.2835C34.683 55.1682 34.2231 55.4396 34.1078 55.891C33.9925 56.3424 34.2639 56.8023 34.7153 56.9176L46.9019 60.0493C47.2225 60.1323 47.5488 60.173 47.8722 60.173C48.5613 60.173 49.2419 59.9888 49.8522 59.6274C50.3219 59.349 50.7198 58.9848 51.0306 58.5559L55.9075 58.4462C55.9989 58.4448 56.0889 58.4279 56.1747 58.3955L63.4619 55.763L63.4956 55.7504L68.4625 53.7099C69.8434 53.1432 71.3383 53.6255 71.9388 54.8335C72.2397 55.441 72.2861 56.1329 72.0681 56.7812Z" fill="#5758D6"/>
</svg>
