<svg width="80" height="80" viewBox="0 0 80 80" fill="none" xmlns="http://www.w3.org/2000/svg">
<g clip-path="url(#clip0_26827_3108)">
<path d="M67.7338 38.6924V36.4759C67.7338 31.9103 66.5638 27.3799 64.3503 23.3745C62.3076 19.6783 59.4033 16.4796 55.9157 14.0694L56.0215 13.9034C56.1639 13.6798 56.2118 13.4089 56.1546 13.15C56.0974 12.8912 55.9397 12.6657 55.7163 12.523C51.1457 9.605 45.8843 8.0625 40.5012 8.0625C35.1177 8.0625 29.8564 9.605 25.2862 12.523C25.0628 12.6657 24.9051 12.8912 24.8479 13.15C24.7907 13.4089 24.8386 13.6798 24.9811 13.9034L25.0868 14.0694C21.5993 16.4795 18.6949 19.6783 16.6522 23.3745C14.4387 27.3799 13.2688 31.9101 13.2688 36.4759V38.6924C10.7998 39.2934 8.96094 41.522 8.96094 44.1734V53.6721C8.96094 56.783 11.4918 59.3138 14.6026 59.3138H18.2662C19.4163 59.3138 20.3521 58.3783 20.3521 57.228V40.6176C20.3523 40.2091 20.2319 39.8096 20.0058 39.4694V36.4757C20.0058 29.7851 23.2386 23.6018 28.7001 19.7393L28.7802 19.8649C28.8508 19.9757 28.9425 20.0715 29.0502 20.1469C29.1579 20.2222 29.2793 20.2756 29.4076 20.304C29.5359 20.3323 29.6686 20.3351 29.798 20.3122C29.9274 20.2892 30.051 20.241 30.1617 20.1702C33.2889 18.1736 36.7677 17.1611 40.5012 17.1611C44.2346 17.1611 47.7135 18.1736 50.8411 20.1704C50.9518 20.2411 51.0754 20.2892 51.2048 20.3122C51.3342 20.3351 51.4668 20.3323 51.5951 20.3039C51.7234 20.2755 51.8449 20.2221 51.9525 20.1468C52.0602 20.0715 52.152 19.9757 52.2226 19.8649L52.3026 19.7394C57.7642 23.602 60.9971 29.785 60.9971 36.4757V39.4691C60.7709 39.8094 60.6504 40.209 60.6507 40.6176V57.228C60.6507 58.3781 61.5865 59.3138 62.7367 59.3138H63.5685V62.8704C63.5685 63.9293 63.1535 64.9265 62.3997 65.679C61.65 66.4275 60.6586 66.8396 59.6073 66.8396H59.6011L47.4021 66.8201C46.9478 65.052 45.3403 63.7415 43.4324 63.7415H37.5699C35.3103 63.7415 33.4721 65.5799 33.4721 67.8396C33.4721 70.0991 35.3104 71.9375 37.5699 71.9375H43.4322C45.354 71.9375 46.9701 70.6076 47.4108 68.8201L59.5977 68.8396H59.6072C61.1921 68.8396 62.6853 68.22 63.8127 67.0942C64.9448 65.9641 65.5683 64.4639 65.5683 62.8704V59.3138H66.4001C69.5108 59.3138 72.0417 56.783 72.0417 53.6721V44.1734C72.0417 41.522 70.2028 39.2934 67.7338 38.6924ZM43.4323 69.9375H37.5699C36.4132 69.9375 35.4721 68.9964 35.4721 67.8396C35.4721 66.6826 36.4132 65.7415 37.5699 65.7415H43.4322C44.5891 65.7415 45.5302 66.6826 45.5302 67.8394C45.5303 68.9964 44.5892 69.9375 43.4323 69.9375ZM18.3517 57.228C18.3509 57.2505 18.3415 57.2718 18.3256 57.2878C18.3097 57.3037 18.2883 57.3129 18.2658 57.3138H14.6023C12.5943 57.3138 10.9607 55.6803 10.9607 53.6721V44.1734C10.9607 42.1654 12.5943 40.5317 14.6023 40.5317H18.2659C18.3108 40.5317 18.3518 40.5728 18.3518 40.6177L18.3517 57.228ZM20.7989 25.6462C18.9714 28.958 18.0056 32.7029 18.0056 36.4759V38.5317H15.2686V36.4759C15.2686 28.1736 19.3231 20.5025 26.1622 15.7571L27.6242 18.0515C24.8073 20.031 22.4588 22.638 20.7989 25.6462ZM51.0616 17.9651C47.8326 16.1038 44.2848 15.1611 40.5012 15.1611C36.7746 15.1611 33.1447 16.1281 29.9414 17.966L27.2146 13.6867C31.2586 11.3127 35.8309 10.0625 40.5012 10.0625C45.1712 10.0625 49.7436 11.3127 53.788 13.6867L51.0616 17.9651ZM60.2035 25.6462C58.5436 22.6383 56.1951 20.031 53.3781 18.0515L54.8402 15.7571C61.6793 20.5028 65.7338 28.1739 65.7338 36.4759V38.5317H62.997V36.4759C62.997 32.7029 62.031 28.958 60.2035 25.6462ZM70.0417 53.6721C70.0417 55.6801 68.4081 57.3138 66.4001 57.3138H62.7365C62.7139 57.313 62.6925 57.3037 62.6766 57.2878C62.6606 57.2719 62.6513 57.2505 62.6505 57.228V40.6176C62.6505 40.5728 62.6915 40.5316 62.7365 40.5316H66.4001C68.4081 40.5316 70.0417 42.1651 70.0417 44.1732V53.6721ZM34.5088 51.6235H45.7903L52.141 56.1831C52.2904 56.2904 52.4665 56.3544 52.6499 56.3681C52.8334 56.3817 53.017 56.3445 53.1807 56.2606C53.3443 56.1766 53.4817 56.0491 53.5776 55.8922C53.6735 55.7352 53.7242 55.5548 53.7242 55.3709V51.6235H54.9131C56.3256 51.6235 57.4747 50.4744 57.4747 49.0617V36.2761C57.4747 34.8638 56.3256 33.7146 54.9131 33.7146H49.0553V32.3591C49.0553 30.9465 47.9061 29.7974 46.4936 29.7974H26.0893C24.6768 29.7974 23.5277 30.9465 23.5277 32.3591V45.1445C23.5277 46.5571 24.6768 47.7062 26.0893 47.7062H27.2783V51.4538C27.2783 51.6377 27.329 51.8181 27.4249 51.9751C27.5208 52.1321 27.6581 52.2596 27.8218 52.3436C27.9855 52.4276 28.1691 52.4647 28.3526 52.4511C28.536 52.4374 28.7122 52.3733 28.8616 52.266L32.1047 49.9374C32.4634 50.9194 33.4043 51.6235 34.5088 51.6235ZM28.2782 45.7062H26.0892C25.9403 45.7061 25.7975 45.6468 25.6922 45.5415C25.5869 45.4362 25.5277 45.2934 25.5276 45.1445V32.3591C25.5277 32.2102 25.5869 32.0674 25.6922 31.9621C25.7975 31.8568 25.9403 31.7975 26.0892 31.7974H46.4935C46.6424 31.7976 46.7851 31.8568 46.8904 31.9621C46.9958 32.0674 47.055 32.2102 47.0552 32.3591V45.1445C47.0551 45.2934 46.9958 45.4363 46.8905 45.5416C46.7852 45.6469 46.6424 45.7061 46.4935 45.7062H34.8899C34.6807 45.7062 34.4767 45.7719 34.3067 45.894L29.2781 49.5046V46.7062C29.2782 46.154 28.8306 45.7062 28.2782 45.7062ZM35.2119 47.7062H46.4936C47.9061 47.7062 49.0553 46.5571 49.0553 45.1445V35.7146H54.9131C55.062 35.7148 55.2047 35.774 55.31 35.8793C55.4153 35.9845 55.4745 36.1272 55.4747 36.2761V49.0617C55.4746 49.2107 55.4154 49.3535 55.3101 49.4588C55.2048 49.5641 55.062 49.6233 54.9131 49.6235H52.7242C52.459 49.6235 52.2046 49.7289 52.0171 49.9164C51.8296 50.1039 51.7242 50.3583 51.7242 50.6235V53.4219L46.6954 49.8112C46.5255 49.6892 46.3215 49.6235 46.1122 49.6235H34.5088C34.3599 49.6233 34.2171 49.5641 34.1118 49.4588C34.0065 49.3535 33.9473 49.2107 33.9472 49.0617V48.6144L35.2119 47.7062ZM28.1844 38.7518C28.1844 38.4865 28.2898 38.2322 28.4773 38.0446C28.6649 37.8571 28.9192 37.7518 29.1844 37.7518H43.3983C43.6635 37.7518 43.9179 37.8571 44.1054 38.0446C44.293 38.2322 44.3983 38.4865 44.3983 38.7518C44.3983 39.017 44.293 39.2713 44.1054 39.4589C43.9179 39.6464 43.6635 39.7518 43.3983 39.7518H29.1844C28.9192 39.7518 28.6649 39.6464 28.4773 39.4589C28.2898 39.2713 28.1844 39.017 28.1844 38.7518ZM28.1844 34.7741C28.1844 34.5089 28.2898 34.2546 28.4773 34.067C28.6649 33.8795 28.9192 33.7741 29.1844 33.7741H43.3983C43.6635 33.7741 43.9179 33.8795 44.1054 34.067C44.293 34.2546 44.3983 34.5089 44.3983 34.7741C44.3983 35.0393 44.293 35.2937 44.1054 35.4812C43.9179 35.6688 43.6635 35.7741 43.3983 35.7741H29.1844C28.9192 35.7741 28.6649 35.6688 28.4773 35.4812C28.2898 35.2937 28.1844 35.0393 28.1844 34.7741ZM43.3983 43.7293H29.1844C28.9192 43.7293 28.6649 43.6239 28.4773 43.4364C28.2898 43.2488 28.1844 42.9945 28.1844 42.7293C28.1844 42.464 28.2898 42.2097 28.4773 42.0221C28.6649 41.8346 28.9192 41.7293 29.1844 41.7293H43.3983C43.6635 41.7293 43.9179 41.8346 44.1054 42.0221C44.293 42.2097 44.3983 42.464 44.3983 42.7293C44.3983 42.9945 44.293 43.2488 44.1054 43.4364C43.9179 43.6239 43.6635 43.7293 43.3983 43.7293Z" fill="#5758D6"/>
</g>
<defs>
<clipPath id="clip0_26827_3108">
<rect width="64" height="64" fill="white" transform="translate(8.5 8)"/>
</clipPath>
</defs>
</svg>
