<svg width="40" height="40" viewBox="0 0 40 40" fill="none" xmlns="http://www.w3.org/2000/svg">
<g clip-path="url(#clip0_24850_73)">
<mask id="mask0_24850_73" style="mask-type:luminance" maskUnits="userSpaceOnUse" x="0" y="0" width="40" height="40">
<path d="M40 0H0V40H40V0Z" fill="white"/>
</mask>
<g mask="url(#mask0_24850_73)">
<path d="M39.9532 2.98608C39.8665 1.39717 38.6028 0.133663 37.0139 0.0469435C33.8079 -0.128213 27.5341 0.0421778 21.5351 3.14507C18.4768 4.72695 15.2424 7.40889 12.6613 10.5033C12.6295 10.5414 12.5985 10.5798 12.567 10.618L6.70916 11.0705C5.74495 11.145 4.88611 11.6504 4.35283 12.4569L0.356425 18.5016C-0.0480272 19.1133 -0.112324 19.8789 0.184316 20.5495C0.481035 21.2201 1.09072 21.6875 1.81533 21.7997L6.75056 22.564C6.73315 22.66 6.71564 22.7559 6.69963 22.8517C6.53533 23.8345 6.86096 24.8451 7.5708 25.5548L14.4452 32.4293C15.0337 33.0179 15.8289 33.3423 16.6437 33.3423C16.8116 33.3423 16.9803 33.3284 17.1483 33.3004C17.2443 33.2844 17.3401 33.2668 17.436 33.2495L18.2004 38.1848C18.3127 38.9093 18.78 39.5191 19.4505 39.8157C19.7295 39.9392 20.0247 40.0001 20.3187 40.0001C20.7313 40.0001 21.1412 39.8799 21.4984 39.6437L27.5431 35.6472C28.3497 35.1139 28.8551 34.2551 28.9293 33.2909L29.3819 27.4332C29.4201 27.4016 29.4585 27.3707 29.4967 27.3389C32.5911 24.7577 35.2732 21.5233 36.8549 18.4651C39.958 12.4658 40.128 6.19195 39.9532 2.98608ZM26.2505 33.6921L20.4684 37.5149L19.7233 32.7052C22.1671 31.9867 24.5845 30.8359 26.8876 29.2943L26.5928 33.1103C26.5745 33.3484 26.4496 33.5604 26.2505 33.6921ZM16.1024 30.772L9.22799 23.8976C9.0526 23.7221 8.97151 23.4756 9.01127 23.2381C9.21564 22.0161 9.53323 20.8527 9.92635 19.7568L20.2411 30.0715C18.9248 30.5429 17.7459 30.8243 16.7619 30.9888C16.524 31.0283 16.2779 30.9475 16.1024 30.772ZM6.88971 13.4072L10.7056 13.1125C9.16392 15.4156 8.01315 17.8329 7.29463 20.2767L2.48495 19.5317L6.30791 13.7496C6.43963 13.5504 6.65173 13.4256 6.88971 13.4072ZM27.9956 25.5389C26.1024 27.1181 24.2647 28.2603 22.5707 29.0868L10.9128 17.4289C11.9955 15.2176 13.3168 13.3763 14.4611 12.0046C16.8497 9.14093 19.8205 6.67053 22.6119 5.22679C28.1177 2.37889 33.9185 2.22553 36.8864 2.38709C37.2792 2.40851 37.5916 2.72093 37.6129 3.11381C37.7748 6.08163 37.6211 11.8824 34.7732 17.3883C33.3296 20.1795 30.8592 23.1503 27.9956 25.5389Z" fill="black"/>
<path d="M27.3984 18.4569C28.8985 18.4568 30.3993 17.8857 31.5413 16.7436C32.6481 15.6369 33.2575 14.1656 33.2575 12.6006C33.2575 11.0356 32.648 9.56418 31.5413 8.45754C29.2569 6.17294 25.5397 6.17308 23.2553 8.45754C22.1485 9.56418 21.5391 11.0356 21.5391 12.6006C21.5391 14.1656 22.1487 15.6369 23.2553 16.7436C24.3976 17.886 25.8976 18.4571 27.3984 18.4569ZM24.9124 10.1147C25.5977 9.42934 26.498 9.08668 27.3981 9.08668C28.2985 9.08668 29.1988 9.42934 29.884 10.1147C30.548 10.7787 30.9136 11.6615 30.9136 12.6005C30.9136 13.5395 30.548 14.4224 29.884 15.0864C28.5135 16.4571 26.2831 16.4569 24.9124 15.0864C24.2484 14.4224 23.8827 13.5396 23.8827 12.6006C23.8827 11.6616 24.2484 10.7787 24.9124 10.1147Z" fill="black"/>
<path d="M1.19527 32.9648C1.49519 32.9648 1.79511 32.8504 2.02387 32.6215L5.84988 28.7955C6.30754 28.3377 6.30754 27.5959 5.84988 27.1381C5.3923 26.6805 4.65027 26.6805 4.19262 27.1381L0.36668 30.9641C-0.0909767 31.4219 -0.0909767 32.1639 0.36668 32.6215C0.595429 32.8503 0.895351 32.9648 1.19527 32.9648Z" fill="black"/>
<path d="M9.35629 30.643C8.89871 30.1854 8.15668 30.1854 7.69903 30.643L0.343242 37.9989C-0.114414 38.4566 -0.114414 39.1985 0.343242 39.6562C0.57207 39.885 0.871914 39.9994 1.17184 39.9994C1.47176 39.9994 1.77168 39.885 2.00043 39.6561L9.35621 32.3003C9.81395 31.8426 9.81395 31.1007 9.35629 30.643Z" fill="black"/>
<path d="M11.2005 34.1508L7.37449 37.9768C6.91684 38.4346 6.91684 39.1764 7.37449 39.6342C7.60332 39.863 7.90324 39.9774 8.20308 39.9774C8.50293 39.9774 8.80293 39.863 9.03168 39.6342L12.8577 35.8082C13.3153 35.3504 13.3153 34.6084 12.8577 34.1508C12.4001 33.6932 11.6581 33.6932 11.2005 34.1508Z" fill="black"/>
</g>
</g>
<defs>
<clipPath id="clip0_24850_73">
<rect width="40" height="40" fill="white"/>
</clipPath>
</defs>
</svg>
