<svg width="19" height="17" viewBox="0 0 19 17" fill="none" xmlns="http://www.w3.org/2000/svg">
<path d="M7.758 16.5004C7.7554 16.5004 7.7524 16.5004 7.7499 16.5004C7.6433 16.4982 7.5427 16.4527 7.4706 16.3745L0.10314 8.36339C-0.0231901 8.22589 -0.0347902 8.01879 0.0756398 7.86789C0.18607 7.71749 0.387159 7.66599 0.556459 7.74499L7.2995 10.9024C7.3563 10.929 7.4233 10.9161 7.4667 10.871L17.7525 0.120652C17.8918 -0.025008 18.1195 -0.0409079 18.2776 0.0845621C18.4358 0.210032 18.4723 0.435192 18.3618 0.604052L8.1301 16.2782C8.1155 16.301 8.0983 16.3216 8.0794 16.3409L8.0343 16.3861C7.9608 16.4591 7.8611 16.5004 7.758 16.5004Z" fill="white"/>
</svg>
