<svg width="185" height="24" viewBox="0 0 185 24" fill="none" xmlns="http://www.w3.org/2000/svg">
<path d="M-0.00159359 22.784V0.384H14.1744V4.384H4.38241V9.472H12.8304V13.376H4.38241V18.784H14.3024V22.784H-0.00159359ZM25.8622 23.168C24.7315 23.168 23.6755 23.0293 22.6942 22.752C21.7128 22.4747 20.8382 22.0907 20.0702 21.6C19.3022 21.088 18.6622 20.5227 18.1502 19.904C17.6595 19.2853 17.3395 18.6347 17.1902 17.952L21.4782 16.672C21.7555 17.3973 22.2462 18.0267 22.9502 18.56C23.6542 19.072 24.5395 19.3387 25.6062 19.36C26.7368 19.3813 27.6542 19.136 28.3582 18.624C29.0835 18.112 29.4462 17.4507 29.4462 16.64C29.4462 15.936 29.1582 15.3493 28.5822 14.88C28.0275 14.3893 27.2595 14.016 26.2782 13.76L23.3662 12.992C22.2782 12.7147 21.3182 12.2987 20.4862 11.744C19.6542 11.168 19.0035 10.464 18.5342 9.632C18.0648 8.8 17.8302 7.82933 17.8302 6.72C17.8302 4.608 18.5235 2.96533 19.9102 1.792C21.3182 0.597334 23.3022 9.53674e-07 25.8622 9.53674e-07C27.2915 9.53674e-07 28.5395 0.213334 29.6062 0.64C30.6942 1.04533 31.6008 1.632 32.3262 2.4C33.0515 3.168 33.6062 4.07467 33.9902 5.12L29.7342 6.432C29.4782 5.70667 29.0088 5.088 28.3262 4.576C27.6435 4.064 26.7795 3.808 25.7342 3.808C24.6675 3.808 23.8248 4.05333 23.2062 4.544C22.6088 5.03467 22.3102 5.728 22.3102 6.624C22.3102 7.328 22.5448 7.88267 23.0142 8.288C23.5048 8.69333 24.1662 9.00267 24.9982 9.216L27.9422 9.952C29.8622 10.4213 31.3555 11.264 32.4222 12.48C33.4888 13.696 34.0222 15.0507 34.0222 16.544C34.0222 17.8667 33.7022 19.0293 33.0622 20.032C32.4222 21.0133 31.4942 21.7813 30.2782 22.336C29.0622 22.8907 27.5902 23.168 25.8622 23.168ZM42.0157 22.784V4.384H35.2957V0.384H53.0877V4.384H46.3997V22.784H42.0157ZM68.9247 22.784L60.3487 0.384H64.7327L73.5647 22.784H68.9247ZM51.2287 22.784L60.0607 0.384H64.4447L55.8687 22.784H51.2287ZM55.3887 17.856V13.984H69.4367V17.856H55.3887ZM78.9532 22.784V4.384H72.2332V0.384H90.0252V4.384H83.3372V22.784H78.9532ZM92.4047 22.784V0.384H106.581V4.384H96.7887V9.472H105.237V13.376H96.7887V18.784H106.709V22.784H92.4047ZM110.748 22.784V0.384H115.132V18.784H124.988V22.784H110.748ZM137.238 23.168C134.977 23.168 132.972 22.6773 131.222 21.696C129.494 20.6933 128.14 19.328 127.158 17.6C126.177 15.8507 125.686 13.856 125.686 11.616C125.686 9.33333 126.177 7.328 127.158 5.6C128.14 3.85067 129.484 2.48533 131.19 1.504C132.918 0.522667 134.902 0.0320005 137.142 0.0320005C139.404 0.0320005 141.388 0.533334 143.094 1.536C144.822 2.51733 146.177 3.88267 147.158 5.632C148.14 7.36 148.63 9.35467 148.63 11.616C148.63 13.856 148.14 15.8507 147.158 17.6C146.198 19.328 144.854 20.6933 143.126 21.696C141.42 22.6773 139.457 23.168 137.238 23.168ZM137.238 19.168C138.604 19.168 139.798 18.848 140.822 18.208C141.868 17.5467 142.678 16.6507 143.254 15.52C143.852 14.3893 144.15 13.088 144.15 11.616C144.15 10.1227 143.852 8.81067 143.254 7.68C142.657 6.54933 141.836 5.664 140.79 5.024C139.745 4.36267 138.529 4.032 137.142 4.032C135.798 4.032 134.593 4.36267 133.526 5.024C132.481 5.664 131.66 6.54933 131.062 7.68C130.465 8.81067 130.166 10.1227 130.166 11.616C130.166 13.088 130.465 14.3893 131.062 15.52C131.66 16.6507 132.492 17.5467 133.558 18.208C134.625 18.848 135.852 19.168 137.238 19.168ZM151.686 22.784V0.384H166.054V4.384H156.07V9.76H164.39V13.76H156.07V22.784H151.686ZM173.641 22.784V4.384H166.921V0.384H184.713V4.384H178.025V22.784H173.641Z" fill="white"/>
</svg>
