<svg width="197" height="36" viewBox="0 0 197 36" fill="none" xmlns="http://www.w3.org/2000/svg">
<path d="M35.3957 16.3874L29.9397 10.9314V4.62882C29.9397 3.48923 29.0163 2.56568 27.875 2.56568C26.7364 2.56568 25.8129 3.48923 25.8129 4.62882V6.8046L21.7505 2.74205C19.742 0.734642 16.2499 0.738203 14.246 2.74568L0.603987 16.3874C-0.201329 17.1943 -0.201329 18.4999 0.603987 19.3056C1.40967 20.1123 2.71785 20.1123 3.52324 19.3056L17.1639 5.66355C17.6083 5.22151 18.3915 5.22151 18.8335 5.66224L32.4765 19.3056C32.6681 19.4974 32.8956 19.6494 33.146 19.7531C33.3964 19.8567 33.6648 19.9099 33.9358 19.9096C34.4642 19.9096 34.9925 19.7088 35.3958 19.3056C36.2014 18.5 36.2014 17.1944 35.3957 16.3874Z" fill="#F6B500"/>
<path d="M18.7179 9.58029C18.3216 9.18417 17.6798 9.18417 17.2846 9.58029L5.28513 21.5762C5.095 21.7667 4.98823 22.0249 4.98828 22.294V31.0434C4.98828 33.0965 6.65298 34.7611 8.70602 34.7611H14.647V25.5605H21.3542V34.7611H27.2953C29.3483 34.7611 31.013 33.0965 31.013 31.0435V22.294C31.013 22.0242 30.9065 21.7656 30.7161 21.5762L18.7179 9.58029Z" fill="black"/>
<path d="M50.822 30V6.2H65.476V9.804H54.766V16.128H64.218V19.664H54.766V26.396H65.578V30H50.822ZM75.8507 30.408C74.7174 30.408 73.6747 30.238 72.7227 29.898C71.7707 29.558 70.9547 29.082 70.2747 28.47C69.5947 27.8353 69.0734 27.0987 68.7107 26.26L72.0087 24.798C72.3487 25.4327 72.8474 25.9653 73.5047 26.396C74.1847 26.8267 74.9327 27.042 75.7487 27.042C76.6327 27.042 77.3354 26.8947 77.8567 26.6C78.4007 26.2827 78.6727 25.852 78.6727 25.308C78.6727 24.7867 78.4687 24.39 78.0607 24.118C77.6527 23.8233 77.0747 23.5853 76.3267 23.404L74.7287 22.962C73.1194 22.554 71.8614 21.908 70.9547 21.024C70.048 20.1173 69.5947 19.086 69.5947 17.93C69.5947 16.23 70.1387 14.9153 71.2267 13.986C72.3374 13.0567 73.924 12.592 75.9867 12.592C77.0294 12.592 77.9814 12.7507 78.8427 13.068C79.7267 13.3627 80.486 13.7933 81.1207 14.36C81.7554 14.904 82.1974 15.55 82.4467 16.298L79.2847 17.726C79.058 17.1593 78.6274 16.7287 77.9927 16.434C77.358 16.1167 76.6554 15.958 75.8847 15.958C75.114 15.958 74.5134 16.128 74.0827 16.468C73.652 16.7853 73.4367 17.2387 73.4367 17.828C73.4367 18.168 73.6294 18.4853 74.0147 18.78C74.4 19.052 74.9554 19.2787 75.6807 19.46L77.6867 19.936C78.7974 20.208 79.704 20.6387 80.4067 21.228C81.1094 21.7947 81.6307 22.4407 81.9707 23.166C82.3107 23.8687 82.4807 24.5827 82.4807 25.308C82.4807 26.328 82.186 27.2233 81.5967 27.994C81.03 28.7647 80.248 29.3653 79.2507 29.796C78.2534 30.204 77.12 30.408 75.8507 30.408ZM91.7666 30.408C89.9759 30.408 88.6046 29.966 87.6526 29.082C86.7232 28.1753 86.2586 26.8833 86.2586 25.206V16.264H83.4366V13H86.2586V7.696H90.0326V13H94.6226V16.264H90.0326V24.492C90.0326 25.2853 90.2139 25.886 90.5766 26.294C90.9619 26.702 91.5172 26.906 92.2426 26.906C92.4692 26.906 92.7186 26.8607 92.9906 26.77C93.2626 26.6793 93.5686 26.5093 93.9086 26.26L95.3026 29.15C94.7132 29.558 94.1239 29.864 93.5346 30.068C92.9452 30.2947 92.3559 30.408 91.7666 30.408ZM103.09 30.408C101.05 30.408 99.4631 29.9547 98.3298 29.048C97.2191 28.1413 96.6638 26.8607 96.6638 25.206C96.6638 23.438 97.2531 22.0893 98.4318 21.16C99.6331 20.2307 101.299 19.766 103.43 19.766H107.748C107.612 18.5193 107.26 17.5673 106.694 16.91C106.127 16.2527 105.288 15.924 104.178 15.924C103.362 15.924 102.648 16.094 102.036 16.434C101.424 16.774 100.902 17.3067 100.472 18.032L97.1398 16.808C97.5025 16.06 97.9785 15.3687 98.5678 14.734C99.1798 14.0767 99.9391 13.5553 100.846 13.17C101.775 12.7847 102.886 12.592 104.178 12.592C105.832 12.592 107.215 12.9207 108.326 13.578C109.436 14.2127 110.252 15.1307 110.774 16.332C111.318 17.5333 111.59 18.984 111.59 20.684L111.488 30H107.986L107.884 27.926C107.43 28.7193 106.796 29.3313 105.98 29.762C105.186 30.1927 104.223 30.408 103.09 30.408ZM103.566 27.212C104.404 27.212 105.141 27.0307 105.776 26.668C106.433 26.2827 106.932 25.7727 107.272 25.138C107.634 24.5033 107.816 23.8007 107.816 23.03V22.69H104.654C103.135 22.69 102.07 22.9053 101.458 23.336C100.846 23.744 100.54 24.3333 100.54 25.104C100.54 25.7613 100.8 26.2827 101.322 26.668C101.866 27.0307 102.614 27.212 103.566 27.212ZM121.712 30.408C119.921 30.408 118.55 29.966 117.598 29.082C116.669 28.1753 116.204 26.8833 116.204 25.206V16.264H113.382V13H116.204V7.696H119.978V13H124.568V16.264H119.978V24.492C119.978 25.2853 120.159 25.886 120.522 26.294C120.907 26.702 121.463 26.906 122.188 26.906C122.415 26.906 122.664 26.8607 122.936 26.77C123.208 26.6793 123.514 26.5093 123.854 26.26L125.248 29.15C124.659 29.558 124.069 29.864 123.48 30.068C122.891 30.2947 122.301 30.408 121.712 30.408ZM135.143 30.408C133.488 30.408 132.015 30.034 130.723 29.286C129.454 28.5153 128.445 27.4613 127.697 26.124C126.972 24.7867 126.609 23.2453 126.609 21.5C126.609 19.7547 126.983 18.2133 127.731 16.876C128.479 15.5387 129.499 14.496 130.791 13.748C132.106 12.9773 133.602 12.592 135.279 12.592C136.798 12.592 138.169 12.9887 139.393 13.782C140.617 14.5527 141.58 15.6747 142.283 17.148C143.008 18.6213 143.371 20.378 143.371 22.418H130.553C130.666 23.846 131.188 24.968 132.117 25.784C133.069 26.6 134.191 27.008 135.483 27.008C136.526 27.008 137.387 26.7813 138.067 26.328C138.747 25.852 139.28 25.24 139.665 24.492L143.031 25.92C142.555 26.8267 141.943 27.62 141.195 28.3C140.47 28.98 139.597 29.5013 138.577 29.864C137.58 30.2267 136.435 30.408 135.143 30.408ZM130.791 19.494H139.257C139.189 18.678 138.951 18.0093 138.543 17.488C138.135 16.944 137.636 16.536 137.047 16.264C136.458 15.992 135.834 15.856 135.177 15.856C134.542 15.856 133.896 15.992 133.239 16.264C132.604 16.5133 132.06 16.91 131.607 17.454C131.154 17.998 130.882 18.678 130.791 19.494ZM145.788 30V6.2H149.596V30H145.788ZM161.143 30.408C159.443 30.408 157.924 30.034 156.587 29.286C155.272 28.5153 154.241 27.4613 153.493 26.124C152.745 24.7867 152.371 23.2453 152.371 21.5C152.371 19.7547 152.734 18.2133 153.459 16.876C154.207 15.5387 155.238 14.496 156.553 13.748C157.868 12.9773 159.375 12.592 161.075 12.592C162.775 12.592 164.282 12.9773 165.597 13.748C166.912 14.496 167.932 15.5387 168.657 16.876C169.405 18.2133 169.779 19.7547 169.779 21.5C169.779 23.2453 169.416 24.7867 168.691 26.124C167.966 27.4613 166.946 28.5153 165.631 29.286C164.316 30.034 162.82 30.408 161.143 30.408ZM161.143 26.906C162.072 26.906 162.9 26.6793 163.625 26.226C164.35 25.75 164.917 25.1153 165.325 24.322C165.733 23.506 165.937 22.5653 165.937 21.5C165.937 20.4347 165.722 19.5053 165.291 18.712C164.883 17.896 164.316 17.2613 163.591 16.808C162.866 16.332 162.027 16.094 161.075 16.094C160.123 16.094 159.284 16.3207 158.559 16.774C157.834 17.2273 157.267 17.862 156.859 18.678C156.451 19.494 156.247 20.4347 156.247 21.5C156.247 22.5653 156.451 23.506 156.859 24.322C157.29 25.1153 157.868 25.75 158.593 26.226C159.341 26.6793 160.191 26.906 161.143 26.906ZM174.279 30V16.128H171.355V13H174.279V11.198C174.279 9.40733 174.721 8.036 175.605 7.084C176.511 6.10933 177.871 5.622 179.685 5.622C180.274 5.622 180.897 5.724 181.555 5.928C182.235 6.10933 182.881 6.35867 183.493 6.676L182.099 9.498C181.668 9.294 181.283 9.14666 180.943 9.056C180.625 8.96533 180.342 8.92 180.093 8.92C179.413 8.92 178.903 9.14667 178.563 9.6C178.245 10.0307 178.087 10.7447 178.087 11.742V13H182.541V16.128H178.087V30H174.279ZM191.894 30.408C190.103 30.408 188.732 29.966 187.78 29.082C186.85 28.1753 186.386 26.8833 186.386 25.206V16.264H183.564V13H186.386V7.696H190.16V13H194.75V16.264H190.16V24.492C190.16 25.2853 190.341 25.886 190.704 26.294C191.089 26.702 191.644 26.906 192.37 26.906C192.596 26.906 192.846 26.8607 193.118 26.77C193.39 26.6793 193.696 26.5093 194.036 26.26L195.43 29.15C194.84 29.558 194.251 29.864 193.662 30.068C193.072 30.2947 192.483 30.408 191.894 30.408Z" fill="black"/>
</svg>
